<svg width="24" height="24" viewBox="0 0 24 24" fill="none" xmlns="http://www.w3.org/2000/svg">
<g id="Group">
<path id="Vector" d="M13.8947 0H10.1053V10.1053H0V13.8947H10.1053V24H13.8947V13.8947H24V10.1053H13.8947V0Z" fill="#FF4B55"/>
<path id="Vector_2" d="M6.48728 15.1579L0.0339966 19.3469C0.0852778 19.7998 0.194028 20.2353 0.353075 20.6458L8.8074 15.1579H6.48728V15.1579Z" fill="#FF4B55"/>
<path id="Vector_3" d="M16.1468 15.1579L23.8149 20.1354C23.9353 19.694 24 19.2296 24 18.75V18.7495L18.4669 15.1579L16.1468 15.1579Z" fill="#FF4B55"/>
<path id="Vector_4" d="M7.57894 8.84212L0.145969 4.01718C0.0507656 4.41262 0 4.82535 0 5.24999V5.42845L5.25881 8.84212H7.57894Z" fill="#FF4B55"/>
<path id="Vector_5" d="M17.4779 8.84212L23.9636 4.63209C23.9106 4.18003 23.8004 3.7455 23.64 3.33609L15.1579 8.84212H17.4779Z" fill="#FF4B55"/>
</g>
</svg>
